<svg width="70" height="70" viewBox="0 0 70 70" fill="none" xmlns="http://www.w3.org/2000/svg">
<path d="M35 17.5C32.8368 17.5 30.7221 18.1415 28.9235 19.3433C27.1248 20.5451 25.7229 22.2533 24.8951 24.2519C24.0672 26.2505 23.8506 28.4496 24.2727 30.5713C24.6947 32.693 25.7364 34.6418 27.266 36.1715C28.7957 37.7011 30.7445 38.7428 32.8662 39.1648C34.9879 39.5869 37.187 39.3703 39.1856 38.5424C41.1842 37.7146 42.8924 36.3127 44.0942 34.514C45.296 32.7154 45.9375 30.6007 45.9375 28.4375C45.9375 25.5367 44.7852 22.7547 42.734 20.7035C40.6828 18.6523 37.9008 17.5 35 17.5ZM35 35C33.7021 35 32.4333 34.6151 31.3541 33.894C30.2749 33.1729 29.4337 32.148 28.937 30.9489C28.4403 29.7497 28.3104 28.4302 28.5636 27.1572C28.8168 25.8842 29.4418 24.7149 30.3596 23.7971C31.2774 22.8793 32.4467 22.2543 33.7197 22.0011C34.9927 21.7479 36.3122 21.8778 37.5114 22.3745C38.7105 22.8712 39.7354 23.7124 40.4565 24.7916C41.1776 25.8708 41.5625 27.1396 41.5625 28.4375C41.5608 30.1775 40.8688 31.8456 39.6385 33.076C38.4081 34.3063 36.74 34.9983 35 35Z" fill="#F7F7F7"/>
<path d="M35 4.375C28.943 4.375 23.0219 6.17113 17.9857 9.53624C12.9494 12.9014 9.02414 17.6843 6.7062 23.2803C4.38827 28.8763 3.78179 35.034 4.96346 40.9746C6.14514 46.9153 9.06188 52.3722 13.3449 56.6551C17.6279 60.9381 23.0847 63.8549 29.0254 65.0365C34.966 66.2182 41.1237 65.6117 46.7197 63.2938C52.3157 60.9759 57.0987 57.0506 60.4638 52.0143C63.8289 46.9781 65.625 41.0571 65.625 35C65.6157 26.8806 62.3862 19.0964 56.6449 13.3551C50.9036 7.61379 43.1194 4.38426 35 4.375ZM21.875 57.6997V54.6875C21.8768 52.9476 22.5687 51.2794 23.799 50.049C25.0294 48.8187 26.6976 48.1267 28.4375 48.125H41.5625C43.3025 48.1267 44.9706 48.8187 46.201 50.049C47.4313 51.2794 48.1233 52.9476 48.125 54.6875V57.6997C44.1419 60.0255 39.6124 61.2511 35 61.2511C30.3876 61.2511 25.8581 60.0255 21.875 57.6997ZM52.4825 54.5256C52.4389 51.6564 51.2699 48.919 49.2273 46.9035C47.1847 44.8879 44.4321 43.7554 41.5625 43.75H28.4375C25.5679 43.7554 22.8153 44.8879 20.7727 46.9035C18.7301 48.919 17.5611 51.6564 17.5175 54.5256C13.5506 50.9835 10.7532 46.32 9.49559 41.1527C8.238 35.9854 8.57961 30.5579 10.4752 25.5891C12.3707 20.6202 15.7308 16.3443 20.1105 13.3275C24.4902 10.3107 29.6829 8.69537 35.0011 8.69537C40.3193 8.69537 45.512 10.3107 49.8917 13.3275C54.2714 16.3443 57.6315 20.6202 59.5271 25.5891C61.4226 30.5579 61.7642 35.9854 60.5066 41.1527C59.249 46.32 56.4494 50.9835 52.4825 54.5256Z" fill="#F7F7F7"/>
</svg>
